<?xml version="1.0" encoding="UTF-8"?>
<!DOCTYPE svg PUBLIC "-//W3C//DTD SVG 1.1//EN" "http://www.w3.org/Graphics/SVG/1.1/DTD/svg11.dtd">
<!-- Creator: CorelDRAW 2021 (64-Bit) -->
<svg xmlns="http://www.w3.org/2000/svg" xml:space="preserve" width="71.5948mm" height="71.5948mm" version="1.1" style="shape-rendering:geometricPrecision; text-rendering:geometricPrecision; image-rendering:optimizeQuality; fill-rule:evenodd; clip-rule:evenodd"
viewBox="0 0 1608.71 1608.71"
 xmlns:xlink="http://www.w3.org/1999/xlink"
 xmlns:xodm="http://www.corel.com/coreldraw/odm/2003">
 <defs>
  <style type="text/css">
   <![CDATA[
    .fil0 {fill:#265AA5}
    .fil1 {fill:white}
   ]]>
  </style>
 </defs>
 <g id="Layer_x0020_1">
  <metadata id="CorelCorpID_0Corel-Layer"/>
  <rect class="fil0" width="1608.71" height="1608.71"/>
  <g id="_1827280236992">
   <path class="fil1" d="M766.04 526.78c0,-79.83 -4.82,-160.27 56.24,-221.33 56.73,-56.73 118.93,-59.72 193.57,-59.72 120.04,0 201.24,90.14 201.24,211.65 0,84.54 5.36,160.97 -59.75,224.75 -61.57,60.32 -186.94,70.26 -264.99,41 -83.69,-31.38 -126.31,-105.98 -126.31,-196.37zm185.06 -360.84l85.03 0c46.89,3.49 92.37,12.73 132.84,27.31 77.35,27.87 131.09,80.14 167.28,151.92 45.37,90 44.77,204.75 0,293.82 -19.34,38.48 -40.32,68.65 -71.59,94.95 -130.39,109.64 -360.04,105.57 -498.61,32.25l0 426.76 149.19 0c8,0 10.41,2.41 10.41,10.41 0,134.32 9.57,118.63 -34.63,118.03l-135.38 -0.06c-7.42,-31.83 -3.47,-89.69 -3.47,-124.91l-138.79 0 0 -648.82c-86.89,45.98 -234.72,40.83 -304.36,-18.31 -60.83,-51.66 -70.36,-104.64 -70.36,-179.46 0,-33.25 21.04,-81.07 40.8,-104.92 63.32,-76.38 122.8,-78.91 218.32,-78.97l4.57 0c87.85,0 160.42,50.09 190.83,107.56 8.9,-5.96 28.77,-27.46 53.38,-43.77 56.52,-37.45 129.55,-58.17 204.54,-63.79zm-615.29 239.4c0,-67.47 -9.48,-110.43 42.43,-158.8 59.95,-55.86 238.61,-46.51 238.61,96.35l0 62.45c0,62.4 -52.3,117.97 -114.5,117.97l-52.04 0c-60.85,0 -114.5,-57.57 -114.5,-117.97z"/>
   <path class="fil1" d="M752.16 1376.84l0 65.92 90.21 0c0,-94.68 18.66,-76.33 -79.8,-76.33 -7.99,0 -10.41,2.42 -10.41,10.41z"/>
  </g>
 </g>
</svg>
