<?xml version="1.0" encoding="UTF-8"?>
<!DOCTYPE svg PUBLIC "-//W3C//DTD SVG 1.1//EN" "http://www.w3.org/Graphics/SVG/1.1/DTD/svg11.dtd">
<!-- Creator: CorelDRAW 2021 (64-Bit) -->
<svg xmlns="http://www.w3.org/2000/svg" xml:space="preserve" width="71.5948mm" height="71.5948mm" version="1.1" style="shape-rendering:geometricPrecision; text-rendering:geometricPrecision; image-rendering:optimizeQuality; fill-rule:evenodd; clip-rule:evenodd"
viewBox="0 0 919.83 919.83"
 xmlns:xlink="http://www.w3.org/1999/xlink"
 xmlns:xodm="http://www.corel.com/coreldraw/odm/2003">
 <defs>
  <style type="text/css">
   <![CDATA[
    .fil0 {fill:none}
    .fil1 {fill:#265AA5}
   ]]>
  </style>
 </defs>
 <g id="Layer_x0020_1">
  <metadata id="CorelCorpID_0Corel-Layer"/>
  <rect class="fil0" width="919.83" height="919.83"/>
  <g id="_1827317520960">
   <path class="fil1" d="M438.01 301.21c0,-45.64 -2.76,-91.64 32.16,-126.55 32.44,-32.44 68,-34.14 110.68,-34.14 68.64,0 115.06,51.54 115.06,121.02 0,48.34 3.07,92.04 -34.17,128.51 -35.2,34.49 -106.89,40.18 -151.52,23.45 -47.86,-17.94 -72.22,-60.6 -72.22,-112.28zm105.81 -206.32l48.62 0c26.81,2 52.82,7.28 75.95,15.62 44.23,15.94 74.96,45.82 95.65,86.87 25.94,51.46 25.6,117.07 0,168 -11.06,22 -23.06,39.25 -40.94,54.29 -74.55,62.69 -205.87,60.36 -285.1,18.44l0 244.02 85.31 0c4.57,0 5.95,1.38 5.95,5.95 0,76.8 5.47,67.83 -19.8,67.49l-77.41 -0.04c-4.24,-18.2 -1.98,-51.28 -1.98,-71.42l-79.36 0 0 -370.99c-49.68,26.29 -134.21,23.35 -174.03,-10.47 -34.78,-29.54 -40.23,-59.83 -40.23,-102.61 0,-19.01 12.03,-46.35 23.33,-59.99 36.2,-43.67 70.22,-45.12 124.83,-45.15l2.61 0c50.23,0 91.73,28.64 109.11,61.5 5.09,-3.41 16.45,-15.7 30.52,-25.03 32.32,-21.41 74.07,-33.26 116.95,-36.47zm-351.82 136.89c0,-38.58 -5.42,-63.14 24.26,-90.8 34.28,-31.94 136.43,-26.59 136.43,55.09l0 35.71c0,35.68 -29.9,67.45 -65.47,67.45l-29.76 0c-34.79,0 -65.47,-32.92 -65.47,-67.45z"/>
   <path class="fil1" d="M430.08 787.26l0 37.69 51.58 0c0,-54.14 10.67,-43.65 -45.63,-43.65 -4.57,0 -5.95,1.38 -5.95,5.95z"/>
  </g>
 </g>
</svg>
